<svg xmlns="http://www.w3.org/2000/svg" viewBox="0 0 961.637 465.277">
    <defs>
        <style>.cls-1{fill:#ea4335;}.cls-2{fill:#4285f4;}.cls-3{fill:#fbbc04;}.cls-4{fill:#0f9d58;}</style>
    </defs>
    <path class="cls-1" d="M228.943,233.551,385.1,143.392A76.836,76.836,0,1,0,308.266,10.308L38.431,166.1Z"/>
    <path class="cls-2"
          d="M346.611,465.277A76.846,76.846,0,0,0,385.1,321.886L115.267,166.1A76.836,76.836,0,1,0,38.431,299.183L308.266,454.969A76.468,76.468,0,0,0,346.611,465.277Z"/>
    <path class="cls-3"
          d="M615.028,465.277a76.466,76.466,0,0,0,38.345-10.308L923.205,299.183l-188.09-68.852L576.537,321.886a76.846,76.846,0,0,0,38.491,143.391Z"/>
    <path class="cls-4"
          d="M884.715,309.491A76.846,76.846,0,0,0,923.205,166.1L653.373,10.308a76.836,76.836,0,0,0-76.836,133.084L846.37,299.183A76.514,76.514,0,0,0,884.715,309.491Z"/>
</svg>
